<svg xmlns="http://www.w3.org/2000/svg" width="120" height="42.946" viewBox="0 0 120 42.946"><g fill="#399399"><path d="M26.764 29.178c0 .377-.086.754-.257 1.13-.172.377-.497.703-.976.977-1.198.72-2.56 1.353-4.082 1.9-1.525.547-3.125 1.002-4.804 1.36-1.678.36-3.39.626-5.137.797s-3.425.258-5.034.258c-1.233-.035-2.278-.172-3.133-.412-.857-.24-1.542-.65-2.055-1.232C.428 33.134 0 31.953 0 30.412c0-1.37.308-3.065.924-5.086 1.404-4.794 2.432-9.135 3.083-13.022.65-3.887 1.163-7.27 1.54-10.146.07-.753.352-1.3.85-1.644C6.89.172 7.43 0 8.013 0 8.63 0 9.17.172 9.632.514c.462.343.693.89.693 1.644v.308c-.308 3.596-.848 7.432-1.618 11.507-.77 4.076-1.79 8.305-3.056 12.688-.17.584-.3 1.09-.385 1.517-.086.43-.128.796-.128 1.104 0 .447.085.79.257 1.03.273.307.94.46 2.003.46 1.472-.033 2.96-.153 4.47-.358 1.505-.206 2.953-.47 4.34-.797 1.387-.325 2.67-.7 3.853-1.13 1.18-.427 2.183-.88 3.005-1.36.24-.137.48-.223.72-.258.238-.033.46-.05.667-.05.787 0 1.404.325 1.85.975l.05.05c.274.446.412.89.412 1.336z"/><path d="M56.044 29.744c0 .377-.086.737-.256 1.08-.172.342-.48.65-.925.924-.788.48-1.764.917-2.928 1.31-1.165.393-2.397.71-3.698.95-.206.034-.412.06-.617.077-.206.017-.41.025-.616.025-1.062 0-2.08-.197-3.057-.59-.976-.395-1.738-1.002-2.286-1.824-.24-.377-.436-.745-.59-1.105-.154-.358-.266-.777-.333-1.257-.65.788-1.38 1.54-2.184 2.26-.805.72-1.584 1.32-2.337 1.798-2.124 1.337-4.16 2.004-6.113 2.004-.72 0-1.353-.05-1.9-.154h.05c-2.123-.514-3.58-1.833-4.366-3.956-.24-.582-.402-1.233-.488-1.952-.086-.72-.13-1.44-.13-2.158 0-1.506.137-2.987.412-4.443.274-1.454.547-2.576.822-3.364.273-.617.65-1.07 1.13-1.36.48-.292.976-.438 1.49-.438.547 0 1.035.18 1.463.54.428.36.643.83.643 1.412v.41c0 .104-.035.24-.104.412l.052-.05c-.343.993-.616 2.097-.822 3.312-.206 1.216-.31 2.355-.31 3.416 0 .96.104 1.747.31 2.363.206.686.616 1.13 1.233 1.335.272.07.564.103.872.103.445 0 .933-.093 1.464-.282.53-.188 1.07-.47 1.618-.847 1.952-1.334 3.536-2.816 4.75-4.443 1.216-1.626 2.1-3.21 2.647-4.75.24-.515.557-.875.95-1.08.395-.205.83-.308 1.31-.308h.258s.24.033.41.102l-.05-.05c.48.102.9.333 1.26.692.36.36.54.796.54 1.31v.205c0 .068-.02.188-.052.358v-.05c-.378 1.61-.566 2.98-.566 4.11 0 .514.033.976.103 1.387.068.41.154.77.257 1.08v-.052c.17.48.418.805.745.976.325.17.693.256 1.105.256.068 0 .136-.008.205-.026.068-.017.154-.025.257-.025.925-.104 1.823-.31 2.697-.617s1.634-.65 2.285-1.027c.445-.238.874-.358 1.284-.358.924 0 1.54.43 1.85 1.284.168.34.254.7.254 1.078z"/><path d="M74.23 35.677c-.377.325-.822.488-1.336.488-.07 0-.137-.008-.206-.025-.07-.018-.137-.026-.206-.026-1.37-.308-2.834-.796-4.392-1.464-1.56-.667-3.1-1.42-4.623-2.26-1.524-.84-2.937-1.712-4.238-2.62-1.303-.907-2.38-1.754-3.237-2.542-.07.788-.103 1.61-.103 2.466v2.003c-.07.753-.308 1.31-.72 1.67-.41.358-.924.54-1.54.54-.55 0-1.063-.18-1.542-.54-.48-.36-.72-.934-.72-1.722-.034-.514-.06-1.036-.076-1.567-.018-.53-.025-1.087-.025-1.67 0-1.198.042-2.447.128-3.75.085-1.3.23-2.62.437-3.955.24-1.54.54-3.1.9-4.674.358-1.576.795-3.09 1.31-4.547.513-1.455 1.112-2.825 1.797-4.11.684-1.283 1.49-2.44 2.413-3.467.515-.515 1.097-.772 1.747-.772.48 0 1.062.24 1.747.72.17.17.316.376.437.616.12.24.18.565.18.976 0 .41-.12.84-.36 1.284-1.2 1.747-2.175 3.5-2.928 5.265-.753 1.765-1.37 3.622-1.85 5.574.618-.274 1.354-.548 2.21-.823.855-.273 1.772-.52 2.748-.745.976-.222 1.97-.42 2.98-.59 1.008-.172 1.977-.274 2.9-.31h.874c.788 0 1.54.052 2.26.155.753.103 1.284.37 1.592.796.31.43.463.9.463 1.413v.206c-.035.583-.224 1.097-.565 1.542-.343.445-.856.668-1.54.668h-.36c-.104 0-.207-.017-.31-.052-.136-.034-.325-.052-.564-.052H68.22c-.822.07-1.695.18-2.62.334-.924.154-1.815.352-2.67.59-.857.24-1.654.49-2.39.747-.737.255-1.344.52-1.824.795-.343.103-.514.274-.514.514 0 .204.085.393.257.564.615.548 1.522 1.242 2.72 2.08 1.2.84 2.5 1.67 3.905 2.492 1.404.822 2.85 1.576 4.34 2.26 1.49.686 2.834 1.13 4.033 1.336.65.17 1.113.454 1.387.848.274.394.412.83.412 1.31 0 .308-.07.6-.206.873-.17.443-.444.828-.82 1.154zM107.106 29.59c0 .41-.103.804-.308 1.18-.205.378-.497.687-.873.926-1.165.616-2.483 1.19-3.956 1.72-1.474.532-2.844.866-4.11 1.002-.24.034-.48.05-.72.05h-.617c-1.13 0-2.03-.178-2.697-.538s-1.276-.933-1.824-1.72v.05c-.24-.342-.462-.83-.668-1.464-.205-.633-.308-1.207-.308-1.72-.103 0-.205.05-.31.153-.444.274-1 .693-1.668 1.258-.667.565-1.38 1.173-2.13 1.824-.48.377-.935.745-1.362 1.104-.43.36-.848.71-1.26 1.053-1.472 1.06-2.842 1.592-4.11 1.592-1.06 0-1.968-.326-2.72-.976-.96-.822-1.44-2.07-1.44-3.75.07-1.54.463-2.997 1.183-4.367.513-1.028 1.137-2.02 1.874-2.98.736-.958 1.516-1.857 2.337-2.697.823-.84 1.652-1.6 2.493-2.286.838-.685 1.618-1.267 2.337-1.747.822-.514 1.798-1.07 2.928-1.67 1.13-.598 2.33-.898 3.596-.898.685 0 1.378.128 2.08.385.702.257 1.414.677 2.133 1.26.342.273.582.564.72.873.135.308.204.6.204.873 0 .445-.102.84-.307 1.182-.24.377-.557.677-.95.9-.395.222-.83.333-1.31.333-.514 0-.994-.154-1.438-.462-.24-.206-.506-.35-.796-.437-.293-.086-.592-.13-.9-.13-.96 0-2.09.446-3.39 1.336-.617.41-1.285.924-2.003 1.54-.72.617-1.43 1.294-2.132 2.03-.702.737-1.354 1.508-1.952 2.313-.6.804-1.07 1.565-1.413 2.284-.103.172-.18.395-.23.668-.052.274-.078.53-.078.77s.017.378.05.412c0 .07.035.103.104.103.206 0 .496-.154.874-.462l.614-.465c.547-.445 1.173-.967 1.875-1.567.7-.6 1.42-1.19 2.156-1.772.736-.58 1.456-1.137 2.158-1.668.7-.53 1.327-.967 1.875-1.31v.052c.89-.547 1.746-.822 2.568-.822.685 0 1.25.206 1.695.617.445.41.667 1.044.667 1.9v.77c0 .48.018.91.052 1.285.034.377.103.686.205.925.17.48.377.805.617.976.24.17.547.257.925.257h.205c.41-.07.89-.17 1.438-.308.547-.137 1.104-.3 1.67-.488.564-.188 1.11-.385 1.643-.59.53-.206.984-.412 1.36-.617.412-.205.79-.308 1.13-.308.65 0 1.216.274 1.696.822v.05c.343.444.514.906.514 1.385z"/><path d="M117.74 16.542c-.686 0-1.387-.24-2.106-.72-.445 0-1.02.096-1.72.283-.703.19-1.43.43-2.184.72-.754.29-1.49.616-2.21.975-.718.36-1.334.728-1.848 1.105-.686.48-1.045.89-1.08 1.233.07.24.377.513.925.822.273.137.54.266.796.385.257.12.52.25.796.385.684.377 1.395.754 2.13 1.13.737.377 1.5.874 2.287 1.49.822.686 1.413 1.508 1.772 2.466.358.96.54 1.918.54 2.877 0 .993-.165 1.97-.49 2.928-.325.96-.727 1.832-1.206 2.62-.89 1.337-1.936 2.595-3.134 3.776-1.2 1.182-2.654 2.25-4.366 3.21-.72.48-1.576.72-2.57.72-.958 0-1.814-.206-2.567-.617-.583-.31-.994-.687-1.233-1.13-.24-.446-.36-.892-.36-1.336 0-.172.026-.37.077-.59.053-.225.112-.438.18-.644.172-.377.42-.686.746-.924.325-.24.728-.36 1.207-.36.274 0 .53.034.77.103.24.068.497.205.772.41.136.137.308.206.513.206.274 0 .496-.07.668-.205 1.096-.685 2.132-1.498 3.108-2.44.976-.94 1.737-1.857 2.286-2.747.376-.514.625-1.002.745-1.464.12-.463.18-.934.18-1.414v-.206c0-.617-.223-1.147-.668-1.592-.548-.48-1.258-.95-2.13-1.413-.875-.462-1.86-.933-2.955-1.412-.137-.068-.25-.12-.334-.155-.086-.033-.197-.084-.334-.154-1.2-.48-2.106-1.112-2.723-1.9-.615-.788-.924-1.627-.924-2.518 0-.855.316-1.73.95-2.62.634-.89 1.584-1.746 2.852-2.568h-.05c.616-.445 1.36-.907 2.234-1.387.874-.478 1.798-.906 2.773-1.283.976-.377 1.995-.702 3.057-.976 1.06-.273 2.088-.427 3.082-.462h.154c.685 0 1.31.12 1.875.36s1.002.564 1.31.975v-.05c.445.513.668 1.06.668 1.643 0 .514-.17 1.027-.513 1.54-.41.617-.994.926-1.747.926z"/></g></svg>